<?xml version="1.0" standalone="no"?>
<!DOCTYPE svg PUBLIC "-//W3C//DTD SVG 20010904//EN"
 "http://www.w3.org/TR/2001/REC-SVG-20010904/DTD/svg10.dtd">
<svg version="1.0" xmlns="http://www.w3.org/2000/svg"
 width="591.000000pt" height="457.000000pt" viewBox="0 0 591.000000 457.000000"
 preserveAspectRatio="xMidYMid meet">

<g transform="translate(0.000000,457.000000) scale(0.100000,-0.100000)"
fill="#000000" stroke="none">
<path d="M493 4094 c3 -4 119 -49 258 -101 l251 -94 77 10 76 10 -71 -4 c-68
-3 -77 -1 -210 54 -182 76 -406 149 -381 125z"/>
<path d="M1145 4090 c-3 -5 1 -10 10 -10 9 0 13 5 10 10 -3 6 -8 10 -10 10 -2
0 -7 -4 -10 -10z"/>
<path d="M1658 4093 c6 -2 18 -2 25 0 6 3 1 5 -13 5 -14 0 -19 -2 -12 -5z"/>
<path d="M1726 4091 c5 -5 25 -12 44 -15 l35 -7 -34 16 c-37 17 -60 20 -45 6z"/>
<path d="M1485 4080 c-5 -9 73 -25 81 -17 3 2 -13 9 -36 15 -22 5 -42 6 -45 2z"/>
<path d="M1585 4080 c3 -5 13 -10 21 -10 8 0 12 5 9 10 -3 6 -13 10 -21 10 -8
0 -12 -4 -9 -10z"/>
<path d="M998 4073 c7 -3 16 -2 19 1 4 3 -2 6 -13 5 -11 0 -14 -3 -6 -6z"/>
<path d="M1276 4071 c5 -5 23 -12 39 -16 30 -6 30 -6 -4 10 -38 17 -49 19 -35
6z"/>
<path d="M1398 4063 c7 -3 16 -2 19 1 4 3 -2 6 -13 5 -11 0 -14 -3 -6 -6z"/>
<path d="M1643 4063 c9 -2 23 -2 30 0 6 3 -1 5 -18 5 -16 0 -22 -2 -12 -5z"/>
<path d="M1698 4063 c7 -3 16 -2 19 1 4 3 -2 6 -13 5 -11 0 -14 -3 -6 -6z"/>
<path d="M2458 3973 c18 -2 45 -2 60 0 15 2 0 4 -33 4 -33 0 -45 -2 -27 -4z"/>
<path d="M1598 3933 c6 -2 18 -2 25 0 6 3 1 5 -13 5 -14 0 -19 -2 -12 -5z"/>
<path d="M1468 3923 c7 -3 16 -2 19 1 4 3 -2 6 -13 5 -11 0 -14 -3 -6 -6z"/>
<path d="M585 3817 c0 -48 2 -52 25 -55 14 -2 29 -8 35 -13 14 -14 25 -11 25
6 0 8 -4 15 -10 15 -5 0 -10 11 -10 25 0 14 5 25 10 25 6 0 10 7 10 15 0 18
-20 20 -20 3 0 -7 -6 -4 -12 7 -11 18 -13 16 -25 -25 l-13 -45 6 48 c4 35 2
47 -8 47 -9 0 -13 -16 -13 -53z m42 -39 c-3 -7 -5 -2 -5 12 0 14 2 19 5 13 2
-7 2 -19 0 -25z"/>
<path d="M680 3778 c1 -50 1 -52 17 -33 14 18 15 18 9 1 -5 -14 -2 -17 9 -12
9 3 15 0 15 -9 0 -8 4 -15 9 -15 5 0 16 -2 23 -5 20 -8 18 93 -2 105 -8 5 -17
7 -21 4 -4 -2 -10 0 -14 6 -3 5 -15 10 -26 10 -16 0 -19 -7 -19 -52z m80 2 c0
-5 -2 -10 -4 -10 -3 0 -8 5 -11 10 -3 6 -1 10 4 10 6 0 11 -4 11 -10z m-4 -48
c-4 -3 -11 0 -16 8 -15 24 -11 33 6 15 9 -9 13 -19 10 -23z"/>
<path d="M589 3683 c-4 -7 -4 -81 0 -205 1 -35 5 -48 16 -48 8 0 17 10 19 23
3 12 7 31 9 42 3 11 5 -4 6 -34 1 -59 13 -65 13 -7 0 20 6 39 13 44 7 4 15 16
18 27 2 11 5 -15 6 -57 1 -45 5 -78 11 -78 6 0 10 50 10 130 0 80 -4 130 -10
130 -5 0 -10 -10 -10 -22 -1 -19 -3 -18 -15 10 -21 48 -35 39 -36 -25 l-2 -58
-6 52 c-6 48 -33 97 -42 76z m23 -168 c-7 -69 -12 -52 -11 41 1 74 3 81 9 44
4 -24 5 -62 2 -85z m58 70 c0 -19 -4 -35 -10 -35 -5 0 -10 16 -10 35 0 19 5
35 10 35 6 0 10 -16 10 -35z m-33 -57 c-3 -8 -6 -5 -6 6 -1 11 2 17 5 13 3 -3
4 -12 1 -19z"/>
<path d="M749 3630 c-1 -9 -10 -94 -18 -173 -7 -79 0 -111 14 -59 l8 27 8 -31
c5 -18 19 -35 34 -42 l25 -12 0 129 c0 101 -3 130 -14 134 -8 3 -16 3 -19 1
-2 -3 -3 -48 0 -101 3 -67 1 -93 -6 -89 -7 4 -11 44 -11 99 0 51 -5 99 -10
107 -5 8 -10 13 -11 10z m8 -152 c-3 -7 -5 -2 -5 12 0 14 2 19 5 13 2 -7 2
-19 0 -25z"/>
<path d="M836 3514 c-3 -9 -6 -48 -6 -87 0 -109 27 -134 42 -39 5 33 6 19 4
-46 -5 -122 11 -106 24 24 12 125 12 136 1 129 -5 -3 -13 0 -17 6 -4 8 -9 7
-15 -2 -7 -11 -9 -10 -9 3 0 23 -17 31 -24 12z m11 -111 c-2 -16 -4 -3 -4 27
0 30 2 43 4 28 2 -16 2 -40 0 -55z"/>
<path d="M588 3344 c-12 -11 -9 -72 3 -79 14 -10 15 -6 9 43 -3 24 -8 40 -12
36z"/>
<path d="M622 3292 c7 -19 16 -28 21 -23 6 6 1 18 -12 32 l-20 22 11 -31z"/>
<path d="M660 3281 c0 -11 -5 -23 -11 -27 -8 -4 -3 -12 12 -20 34 -19 39 -17
39 12 0 14 4 23 10 19 6 -3 10 -4 10 -1 0 3 -13 12 -30 21 -28 15 -30 14 -30
-4z"/>
<path d="M1613 3283 c-16 -6 -18 -123 -3 -123 6 0 10 11 10 25 0 14 4 25 9 25
5 0 12 -11 15 -25 4 -14 13 -25 21 -25 18 0 18 5 5 30 -7 13 -6 27 2 46 11 23
10 28 -7 40 -19 14 -31 16 -52 7z m37 -38 c0 -8 -7 -15 -15 -15 -8 0 -15 7
-15 15 0 8 7 15 15 15 8 0 15 -7 15 -15z"/>
<path d="M1697 3283 c-10 -10 -8 -111 2 -117 13 -8 71 5 71 15 0 5 -11 9 -25
9 -16 0 -25 6 -25 15 0 8 9 15 20 15 11 0 20 5 20 10 0 6 -9 10 -20 10 -11 0
-20 7 -20 15 0 9 9 15 25 15 14 0 25 5 25 10 0 11 -63 14 -73 3z"/>
<path d="M1780 3230 l0 -60 35 0 c26 0 35 4 35 16 0 11 -6 15 -20 11 -13 -3
-20 0 -20 9 0 8 6 14 14 14 24 0 30 21 7 27 -27 7 -27 23 -1 23 11 0 20 5 20
10 0 6 -16 10 -35 10 l-35 0 0 -60z"/>
<path d="M741 3269 c-1 -9 8 -19 20 -22 18 -5 19 -8 8 -20 -10 -11 -16 -12
-21 -3 -5 7 -8 5 -8 -6 0 -21 4 -22 30 -8 15 8 18 7 14 -3 -6 -17 40 -57 56
-47 9 5 9 9 1 14 -15 10 -14 39 2 34 6 -3 15 -18 18 -34 6 -28 7 -28 8 7 1 31
-3 38 -24 43 -14 4 -25 11 -25 16 0 5 -7 7 -15 4 -9 -4 -18 1 -21 11 -4 9 -12
14 -20 11 -7 -3 -15 0 -18 7 -2 7 -5 5 -5 -4z"/>
<path d="M1403 3272 c-23 -15 -34 -62 -20 -90 14 -31 54 -37 71 -10 15 24 -1
35 -19 12 -13 -16 -16 -17 -25 -4 -12 19 -12 41 0 60 7 12 12 12 22 2 16 -16
28 -15 28 3 0 8 -9 19 -19 25 -23 12 -23 12 -38 2z"/>
<path d="M1510 3220 c0 -47 3 -60 15 -60 8 0 15 8 15 19 0 10 9 21 20 24 11 3
20 10 20 16 0 6 -9 11 -20 11 -11 0 -20 7 -20 15 0 8 9 15 20 15 11 0 20 5 20
10 0 6 -16 10 -35 10 l-35 0 0 -60z"/>
<path d="M1240 3205 c0 -37 4 -65 10 -65 6 0 10 28 10 65 0 37 -4 65 -10 65
-6 0 -10 -28 -10 -65z"/>
<path d="M1280 3205 c0 -37 4 -65 10 -65 6 0 10 19 10 43 l1 42 20 -37 c11
-21 24 -38 29 -38 6 0 10 27 10 60 0 61 -19 87 -21 28 l-1 -33 -14 33 c-25 56
-44 42 -44 -33z"/>
<path d="M1145 3250 c-4 -6 5 -10 19 -10 32 0 32 -2 1 -48 -14 -20 -25 -40
-25 -44 0 -5 20 -8 45 -8 25 0 45 5 45 10 0 6 -11 10 -25 10 -30 0 -31 6 -5
45 11 17 20 36 20 43 0 15 -66 17 -75 2z"/>
<path d="M3907 3134 c-3 -3 3 -15 13 -27 25 -26 18 -34 -12 -13 -24 17 -48 21
-48 8 0 -5 27 -21 60 -37 39 -19 59 -34 58 -44 -2 -8 5 -17 15 -19 27 -6 19
18 -28 83 -40 55 -46 60 -58 49z"/>
<path d="M1614 3105 c-15 -23 -15 -27 0 -50 20 -30 37 -32 59 -7 28 30 16 83
-17 82 -6 0 -3 -5 7 -11 31 -18 16 -79 -20 -79 -7 0 -17 9 -23 21 -9 16 -8 26
5 45 8 13 13 24 10 24 -2 0 -12 -11 -21 -25z"/>
<path d="M1637 3103 c-4 -3 -7 -16 -7 -27 0 -17 2 -18 10 -6 5 8 10 11 10 5 0
-5 4 -3 9 5 14 22 -4 41 -22 23z"/>
<path d="M3513 3069 c-18 -12 -33 -24 -33 -28 0 -4 -15 -13 -34 -19 -52 -19
-64 -38 -38 -62 25 -23 51 -28 33 -7 -6 8 -7 18 -3 22 4 5 -1 5 -10 2 -10 -4
-18 -2 -18 2 0 16 26 19 45 5 23 -17 39 -18 29 -2 -5 8 -2 9 9 5 21 -8 22 6 2
23 -13 11 -12 15 6 31 27 23 28 23 49 4 17 -15 50 -11 50 6 0 4 -7 5 -17 2
-12 -5 -14 -3 -8 7 6 10 4 12 -9 7 -14 -5 -17 -3 -12 8 7 20 -3 19 -41 -6z
m-43 -59 c0 -5 -5 -10 -11 -10 -5 0 -7 5 -4 10 3 6 8 10 11 10 2 0 4 -4 4 -10z"/>
<path d="M1960 2930 l0 -150 25 0 25 0 0 150 0 150 -25 0 -25 0 0 -150z"/>
<path d="M3805 3070 c-24 -38 65 -102 109 -78 24 14 20 33 -15 62 -31 26 -82
35 -94 16z m73 -33 c12 -13 19 -26 16 -30 -8 -8 -64 31 -64 44 0 17 26 9 48
-14z"/>
<path d="M1753 3063 c-13 -2 -23 -11 -23 -19 0 -8 -13 -70 -30 -139 -36 -148
-35 -145 -10 -145 14 0 22 10 28 33 7 26 14 33 39 35 26 3 32 -1 41 -27 8 -23
17 -31 35 -31 l25 0 -18 78 c-45 194 -53 222 -59 221 -3 -1 -16 -4 -28 -6z
m21 -135 c7 -46 6 -48 -18 -48 -23 0 -25 2 -16 26 6 14 10 39 10 57 0 45 16
21 24 -35z"/>
<path d="M1879 2945 c-1 -69 -2 -135 -2 -147 -1 -17 4 -23 18 -23 19 0 20 8
23 148 2 142 2 147 -18 147 -19 0 -20 -6 -21 -125z"/>
<path d="M1537 3053 c-4 -3 -7 -71 -7 -150 l0 -143 25 0 25 0 0 150 c0 139 -1
150 -18 150 -10 0 -22 -3 -25 -7z"/>
<path d="M3711 3053 c1 -14 118 -103 134 -103 26 0 16 13 -47 63 -56 43 -89
58 -87 40z"/>
<path d="M1368 3043 c-16 -4 -18 -20 -18 -155 0 -133 2 -149 16 -144 9 3 20 6
25 6 5 0 9 25 9 55 0 51 2 55 23 55 58 0 97 66 78 131 -16 52 -63 70 -133 52z
m80 -76 c4 -31 -12 -57 -34 -57 -10 0 -14 14 -14 46 0 41 2 45 23 42 16 -2 23
-11 25 -31z"/>
<path d="M3511 3036 c-14 -17 9 -39 33 -30 25 9 19 26 -6 19 -16 -4 -19 -3 -9
3 8 6 9 12 3 16 -5 3 -15 0 -21 -8z"/>
<path d="M1150 2887 l0 -153 48 6 c26 3 55 10 65 16 42 24 61 161 32 229 -16
39 -46 55 -106 55 l-39 0 0 -153z m89 89 c33 -39 17 -177 -21 -184 -16 -3 -18
7 -18 97 0 79 3 101 14 101 7 0 19 -6 25 -14z"/>
<path d="M3675 3030 c-4 -6 -5 -12 -4 -14 2 -1 30 -23 62 -49 58 -46 82 -58
75 -36 -7 22 -126 110 -133 99z"/>
<path d="M2293 3013 c-7 -2 -15 -21 -18 -41 -14 -86 -18 -90 -29 -27 -10 50
-15 61 -34 63 -27 4 -27 1 2 -118 24 -97 21 -130 -9 -130 -17 0 -21 -35 -5
-45 20 -12 49 16 63 62 14 44 57 222 57 237 0 7 -9 7 -27 -1z"/>
<path d="M2064 2989 c-13 -14 -20 -40 -22 -87 -3 -57 -1 -71 18 -94 40 -52
102 -26 116 47 9 50 -1 113 -22 136 -23 25 -66 24 -90 -2z m64 -85 c2 -61 -8
-92 -27 -80 -12 8 -16 128 -4 140 17 17 28 -5 31 -60z"/>
<path d="M3597 2984 c-3 -3 12 -29 34 -56 21 -27 43 -57 48 -65 5 -9 14 -13
20 -9 9 6 9 11 1 21 -15 18 16 35 53 28 49 -10 28 12 -48 50 -74 37 -96 43
-108 31z m91 -66 c-7 -4 -21 0 -30 9 -28 26 -21 36 12 17 20 -12 26 -20 18
-26z"/>
<path d="M3991 2961 c-7 -5 -11 -13 -7 -19 3 -6 -2 -8 -13 -5 -12 3 -24 -3
-35 -18 -9 -13 -16 -18 -16 -11 0 6 -5 12 -11 12 -5 0 -8 -4 -5 -9 4 -5 0 -11
-6 -14 -10 -3 -10 -7 1 -20 13 -16 36 -14 27 2 -3 4 8 7 24 6 34 -2 36 2 13
27 -9 10 -11 18 -5 18 6 0 12 -5 14 -11 3 -8 14 -6 37 5 26 14 30 20 20 32
-13 16 -19 17 -38 5z"/>
<path d="M3323 2941 c-12 -10 -20 -21 -17 -23 2 -3 -9 -8 -26 -11 -35 -8 -39
-22 -9 -38 17 -9 19 -13 8 -20 -21 -13 -29 -11 -29 9 0 27 -9 32 -31 19 -25
-16 -24 -30 1 -22 16 5 20 2 20 -14 0 -26 20 -27 50 -1 13 11 27 20 32 20 5 0
6 5 2 11 -5 8 -8 8 -13 0 -5 -8 -14 -4 -27 10 -11 14 -13 19 -4 13 8 -4 30
-10 49 -11 l34 -2 -24 25 -24 26 32 -19 c25 -14 35 -15 44 -6 7 7 9 16 5 20
-4 4 -10 2 -14 -4 -5 -8 -12 -9 -22 -2 -11 8 -12 12 -2 16 6 2 12 9 12 14 0
15 -23 10 -47 -10z"/>
<path d="M3497 2914 c-10 -11 125 -113 140 -107 16 6 18 4 -56 67 -53 45 -71
53 -84 40z"/>
<path d="M3433 2873 c-18 -8 -33 -18 -32 -22 0 -3 30 -30 65 -60 47 -38 69
-50 76 -43 8 8 5 16 -11 30 -21 16 -22 19 -7 31 21 17 20 34 -1 53 -29 25 -56
28 -90 11z m51 -19 c19 -7 21 -34 3 -34 -14 0 -37 20 -37 32 0 10 13 10 34 2z"/>
<path d="M3855 2870 c-3 -5 -3 -15 1 -21 4 -7 -1 -7 -16 1 -29 16 -38 5 -15
-20 15 -16 19 -17 31 -5 8 7 14 18 14 24 0 5 4 13 10 16 6 4 7 -1 3 -12 -5
-14 -3 -15 7 -6 7 6 9 16 6 22 -9 14 -33 14 -41 1z"/>
<path d="M528 2810 c2 -17 13 -35 23 -41 16 -8 19 -6 19 13 0 13 -9 31 -20 41
-27 22 -27 22 -22 -13z"/>
<path d="M3777 2833 c-4 -3 -7 -11 -7 -16 0 -6 3 -7 7 -4 3 4 12 -1 19 -11 7
-9 15 -14 19 -10 4 4 -2 16 -12 27 -11 12 -23 18 -26 14z"/>
<path d="M2897 2813 c-10 -9 -8 -182 3 -418 15 -327 22 -415 32 -415 6 0 7 16
4 38 -9 57 -25 415 -28 619 -2 101 -3 183 -4 183 0 0 -4 -3 -7 -7z"/>
<path d="M3328 2804 c-16 -8 -28 -18 -27 -22 0 -4 29 -31 65 -60 64 -53 64
-53 89 -35 13 10 25 27 25 39 0 24 -44 68 -83 83 -35 14 -36 14 -69 -5z m92
-43 c27 -23 32 -32 23 -41 -9 -10 -21 -5 -52 21 -23 18 -41 36 -41 41 0 18 37
7 70 -21z"/>
<path d="M592 2773 c4 -39 28 -42 28 -4 0 21 -5 31 -16 31 -11 0 -14 -8 -12
-27z"/>
<path d="M3743 2785 c4 -8 1 -17 -5 -21 -7 -4 -8 -3 -4 4 10 17 -19 15 -33 -2
-6 -8 -25 -19 -42 -26 -20 -9 -28 -18 -24 -28 4 -10 0 -12 -11 -8 -14 5 -15 4
-4 -9 17 -21 5 -19 -16 2 -12 12 -16 13 -13 4 10 -28 34 -35 62 -16 26 16 40
44 15 29 -6 -4 -8 -3 -5 3 4 6 19 8 33 5 24 -4 26 -2 21 18 -4 16 -3 20 5 12
7 -7 17 -7 34 0 27 13 29 19 12 36 -17 17 -31 15 -25 -3z"/>
<path d="M634 2755 c1 -33 16 -33 16 0 0 14 -4 25 -9 25 -5 0 -8 -11 -7 -25z"/>
<path d="M4591 2743 c12 -15 12 -16 -5 -10 -16 6 -17 5 -6 -8 9 -11 17 -12 30
-5 23 13 36 32 17 24 -8 -3 -18 -1 -22 5 -3 6 -11 11 -17 11 -6 0 -5 -7 3 -17z"/>
<path d="M661 2734 c0 -11 3 -14 6 -6 3 7 2 16 -1 19 -3 4 -6 -2 -5 -13z"/>
<path d="M4540 2725 c0 -2 10 -10 23 -16 20 -11 21 -11 8 4 -13 16 -31 23 -31
12z"/>
<path d="M4363 2708 c3 -9 1 -18 -5 -20 -6 -2 -4 -9 5 -16 11 -10 17 -9 26 1
8 11 6 18 -11 33 -18 16 -21 17 -15 2z"/>
<path d="M4522 2699 c2 -7 10 -15 17 -17 8 -3 12 1 9 9 -2 7 -10 15 -17 17 -8
3 -12 -1 -9 -9z"/>
<path d="M536 2683 c-4 -9 -2 -21 4 -27 7 -7 10 -7 10 1 0 6 3 18 6 27 3 9 2
16 -4 16 -5 0 -13 -8 -16 -17z"/>
<path d="M570 2666 c0 -14 5 -26 10 -26 6 0 10 9 10 19 0 11 -4 23 -10 26 -6
4 -10 -5 -10 -19z"/>
<path d="M4479 2672 c-15 -10 -24 -23 -21 -32 5 -13 3 -13 -11 -1 -15 12 -17
11 -17 -3 0 -10 -4 -15 -8 -12 -13 8 -74 -33 -67 -44 3 -6 -1 -10 -10 -10 -9
0 -13 5 -10 10 3 6 1 10 -4 10 -15 0 -14 -15 3 -29 12 -10 20 -9 40 4 14 10
23 21 20 26 -8 13 10 11 24 -3 9 -9 12 -8 12 5 0 9 14 23 30 32 17 9 30 22 30
29 0 9 7 12 21 9 15 -4 20 -2 17 7 -6 20 -20 20 -49 2z"/>
<path d="M618 2674 c-15 -14 -8 -43 11 -54 27 -14 36 -13 22 3 -8 10 -7 17 2
27 10 10 9 12 -5 7 -10 -4 -18 0 -20 9 -2 9 -6 12 -10 8z"/>
<path d="M1993 2630 c0 -30 2 -43 4 -27 2 15 2 39 0 55 -2 15 -4 2 -4 -28z"/>
<path d="M1723 2663 c-15 -5 -18 -33 -4 -33 5 0 12 6 14 13 4 8 6 7 6 -3 0 -8
-6 -24 -14 -34 -8 -11 -15 -26 -15 -33 0 -15 36 -18 45 -3 3 6 -1 10 -9 10
-20 0 -20 5 1 36 14 22 14 27 2 38 -8 8 -20 12 -26 9z"/>
<path d="M1807 2663 c-12 -20 -18 -93 -8 -93 6 0 11 5 11 12 0 9 3 9 12 0 24
-24 48 -14 49 21 l2 32 7 -35 c6 -35 13 -30 23 15 3 12 5 6 7 -15 l2 -35 8 28
c12 41 4 54 -35 55 -34 1 -35 0 -36 -36 -1 -37 -1 -37 -11 11 -9 44 -20 58
-31 40z"/>
<path d="M3550 2660 c0 -5 -7 -10 -16 -10 -9 0 -12 -5 -8 -12 5 -9 2 -9 -9 1
-12 9 -17 10 -17 2 0 -7 -4 -9 -10 -6 -17 10 -11 -7 7 -20 20 -15 76 3 69 22
-3 7 0 15 6 19 7 5 8 2 3 -6 -5 -9 -4 -11 3 -6 19 11 14 26 -8 26 -11 0 -20
-4 -20 -10z"/>
<path d="M4303 2650 c-10 -11 -22 -20 -27 -20 -5 0 -20 -10 -33 -22 -20 -19
-25 -20 -33 -8 -8 13 -10 13 -10 0 0 -40 22 -38 86 7 35 24 62 49 58 54 -8 14
-23 11 -41 -11z"/>
<path d="M2017 2654 c-14 -14 -7 -65 9 -71 12 -4 13 -7 3 -14 -8 -4 -10 -11
-6 -15 15 -15 28 15 25 56 -3 41 -16 59 -31 44z m20 -46 c-3 -7 -5 -2 -5 12 0
14 2 19 5 13 2 -7 2 -19 0 -25z"/>
<path d="M2067 2628 c-6 -38 4 -53 28 -44 22 8 17 70 -6 74 -12 2 -18 -6 -22
-30z"/>
<path d="M2122 2618 c1 -37 2 -39 5 -10 5 39 22 43 24 5 2 -25 2 -24 9 7 l7
35 2 -32 c1 -44 21 -42 21 2 0 33 -2 35 -35 35 -35 0 -35 0 -33 -42z"/>
<path d="M722 2642 c-1 -7 -7 -10 -12 -7 -7 4 -8 -3 -4 -22 7 -28 20 -43 39
-43 6 0 5 4 -2 8 -6 4 -13 23 -16 42 -2 19 -5 29 -5 22z"/>
<path d="M1361 2636 c-7 -8 -11 -32 -9 -53 3 -34 6 -38 28 -35 14 1 37 2 53 2
23 0 27 4 27 27 0 16 -5 35 -10 43 -8 13 -12 12 -27 -4 -17 -17 -17 -18 -1
-13 15 5 16 4 5 -14 -10 -16 -13 -17 -15 -4 -2 8 -10 15 -18 15 -11 0 -13 -6
-9 -20 4 -11 2 -20 -4 -20 -6 0 -11 16 -11 35 0 19 5 35 10 35 6 0 10 -5 10
-11 0 -5 5 -7 10 -4 8 5 7 11 -1 21 -15 18 -23 18 -38 0z"/>
<path d="M1934 2639 c-5 -9 -2 -10 9 -6 10 3 17 2 17 -2 0 -5 -7 -11 -15 -15
-17 -6 -20 -32 -6 -40 21 -14 42 7 39 38 -3 32 -30 48 -44 25z"/>
<path d="M4628 2638 c10 -13 10 -17 0 -20 -8 -3 -9 -6 -1 -11 18 -12 23 21 5
35 -15 11 -16 11 -4 -4z"/>
<path d="M670 2620 c0 -11 5 -20 10 -20 6 0 10 9 10 20 0 11 -4 20 -10 20 -5
0 -10 -9 -10 -20z"/>
<path d="M1637 2634 c-13 -14 -7 -26 10 -20 15 6 15 5 -1 -13 -19 -21 -14 -41
10 -41 11 0 14 9 12 37 -3 35 -17 51 -31 37z"/>
<path d="M4590 2630 c0 -5 -7 -10 -17 -10 -14 0 -14 -2 2 -20 20 -22 35 -26
35 -10 0 6 -3 9 -7 9 -22 -4 -24 3 -8 21 10 11 13 20 7 20 -7 0 -12 -4 -12
-10z"/>
<path d="M1140 2586 c0 -49 19 -76 21 -29 l1 28 10 -28 c14 -38 28 -24 28 29
0 44 -19 64 -21 22 l0 -23 -9 23 c-15 36 -30 25 -30 -22z"/>
<path d="M1477 2624 c-4 -4 -6 -23 -6 -43 1 -27 3 -30 6 -11 8 41 23 47 24 10
l2 -35 7 35 c6 31 8 32 9 8 0 -15 6 -30 12 -33 7 -5 9 6 7 31 -3 33 -7 39 -28
42 -14 2 -29 0 -33 -4z"/>
<path d="M1550 2595 c0 -19 4 -35 9 -35 4 0 6 11 3 25 -2 14 0 25 6 25 6 0 13
-12 15 -27 l4 -28 2 28 c0 15 5 27 10 27 5 0 12 -12 14 -27 3 -23 4 -21 6 10
1 36 0 37 -34 37 -33 0 -35 -2 -35 -35z"/>
<path d="M787 2614 c-11 -11 -8 -62 4 -69 17 -11 20 -1 12 39 -5 21 -12 34
-16 30z"/>
<path d="M1273 2613 c-15 -6 -18 -73 -3 -73 6 0 11 15 11 33 l2 32 7 -35 7
-35 2 43 c1 41 -2 45 -26 35z"/>
<path d="M530 2576 c0 -33 14 -55 27 -42 9 8 -7 76 -17 76 -6 0 -10 -15 -10
-34z"/>
<path d="M1210 2577 c0 -38 6 -48 26 -40 8 3 14 19 14 39 0 27 -4 34 -20 34
-16 0 -20 -7 -20 -33z m30 -2 c0 -8 -4 -17 -10 -20 -6 -4 -10 5 -10 20 0 15 4
24 10 20 6 -3 10 -12 10 -20z"/>
<path d="M4534 2589 c-3 -6 -1 -15 6 -19 7 -5 8 -10 2 -14 -5 -3 -15 1 -22 9
-6 7 -18 11 -26 8 -11 -4 -12 -9 -3 -19 12 -15 58 -20 60 -6 0 4 2 17 5 30 4
23 -10 30 -22 11z m-19 -29 c3 -5 1 -10 -4 -10 -6 0 -11 5 -11 10 0 6 2 10 4
10 3 0 8 -4 11 -10z"/>
<path d="M1310 2580 c0 -5 7 -10 15 -10 8 0 15 5 15 10 0 6 -7 10 -15 10 -8 0
-15 -4 -15 -10z"/>
<path d="M820 2556 c0 -15 7 -26 20 -29 16 -4 20 0 20 18 0 13 -7 26 -16 29
-23 9 -24 8 -24 -18z"/>
<path d="M574 2558 c-4 -7 -3 -8 4 -4 8 5 12 -2 12 -19 0 -20 6 -27 30 -31 17
-4 30 -10 30 -14 0 -4 8 -10 18 -14 9 -3 22 -8 28 -11 7 -3 14 5 16 20 3 14 1
25 -4 25 -5 0 -20 12 -33 26 -22 24 -25 25 -25 8 0 -12 -3 -15 -8 -7 -12 19
-60 34 -68 21z"/>
<path d="M4176 2556 c3 -9 11 -16 16 -16 13 0 5 23 -10 28 -7 2 -10 -2 -6 -12z"/>
<path d="M4300 2545 c0 -9 -6 -12 -17 -8 -13 5 -15 2 -10 -11 5 -13 3 -15 -10
-8 -19 11 -49 -11 -38 -28 10 -16 28 -12 59 15 17 14 36 23 43 21 16 -7 17 6
1 22 -16 16 -28 15 -28 -3z"/>
<path d="M4113 2518 c7 -20 -8 -25 -19 -7 -5 8 -10 6 -16 -5 -5 -9 -16 -16
-26 -16 -15 0 -15 -1 1 -17 14 -14 19 -15 29 -4 11 10 9 11 -7 6 -20 -7 -20
-6 -1 9 11 9 22 12 26 7 3 -6 20 -1 38 11 34 21 44 35 14 19 -13 -7 -23 -6
-32 2 -10 10 -12 8 -7 -5z"/>
<path d="M2445 2484 c-223 -97 -576 -234 -604 -234 -7 0 -10 -4 -7 -9 9 -14
-163 -43 -290 -48 -186 -8 -344 21 -476 88 l-58 29 0 -293 0 -293 -32 -19
c-52 -30 -129 -23 -246 25 -108 43 -158 49 -202 24 -23 -14 -29 -26 -34 -68
-8 -69 -6 -547 2 -568 12 -29 157 -116 365 -219 l122 -61 115 6 c123 7 317 19
573 35 l158 10 27 33 c32 39 120 134 182 198 99 102 251 190 404 234 48 14 94
26 100 26 8 0 11 12 8 35 -2 19 -8 32 -13 29 -5 -3 -9 1 -9 8 0 9 -2 10 -8 2
-7 -13 -76 -34 -127 -40 -16 -2 -31 -9 -33 -14 -2 -6 -13 -10 -23 -10 -13 0
-18 -4 -13 -12 5 -8 2 -9 -9 -5 -10 3 -17 3 -17 -1 0 -4 -10 -8 -22 -9 -39 -3
107 66 194 91 l83 24 1 458 c1 504 -2 584 -19 583 -7 0 -48 -16 -92 -35z
m-810 -561 c4 -16 8 -36 10 -45 2 -10 -1 -21 -6 -24 -5 -3 -9 2 -9 10 0 9 -4
16 -10 16 -5 0 -10 -7 -10 -15 0 -8 -5 -15 -10 -15 -6 0 -8 11 -5 25 3 14 7
36 10 50 7 33 23 32 30 -2z m32 -50 c-2 -16 -4 -3 -4 27 0 30 2 43 4 28 2 -16
2 -40 0 -55z m30 32 c-3 -59 -17 -59 -17 0 0 25 4 45 9 45 5 0 9 -20 8 -45z
m-229 15 c5 -13 3 -13 -11 -1 -15 12 -17 10 -17 -23 0 -35 13 -49 23 -23 3 7
6 5 6 -6 1 -17 -25 -35 -35 -24 -9 9 -15 59 -9 79 8 22 36 21 43 -2z m86 -30
c1 -22 -2 -40 -6 -40 -5 0 -8 21 -8 47 0 56 13 50 14 -7z m-245 17 c7 -13 11
-37 8 -53 l-4 -29 -2 33 c0 17 -6 32 -12 32 -6 0 -9 -6 -6 -12 2 -7 1 -22 -4
-33 -5 -14 -8 -4 -8 33 -1 56 8 66 28 29z m441 -12 c0 -28 -4 -35 -20 -35 -16
0 -20 7 -20 35 0 28 4 35 20 35 16 0 20 -7 20 -35z m41 20 c5 12 6 4 3 -20 -7
-47 -24 -71 -24 -34 0 13 -3 35 -6 49 -5 23 -4 24 7 5 12 -19 12 -19 20 0z
m-617 -75 c8 0 21 12 31 26 9 15 12 23 6 20 -6 -4 -11 -2 -11 3 0 6 9 11 20
11 16 0 20 -7 20 -36 0 -31 -3 -35 -22 -34 -13 1 -25 1 -28 0 -35 -13 -40 -8
-38 43 1 51 2 51 5 10 3 -27 9 -43 17 -43z m91 30 c1 -22 -3 -40 -7 -40 -4 0
-8 21 -8 47 0 56 14 49 15 -7z m244 18 c1 40 21 33 21 -8 0 -17 -7 -30 -16
-34 -21 -8 -22 -7 -24 29 -3 46 2 54 10 15 l7 -35 2 33z m-139 2 c0 -11 -4
-20 -10 -20 -5 0 -10 -5 -10 -11 0 -5 5 -7 11 -3 7 4 10 1 7 -6 -2 -8 -9 -15
-16 -18 -13 -4 -27 41 -18 63 8 22 36 18 36 -5z m605 -81 c-4 -11 -2 -19 4
-19 6 0 11 5 11 10 0 6 7 10 15 10 18 0 20 -21 3 -39 -10 -11 -10 -13 0 -7 6
4 12 3 12 -3 0 -15 -18 -23 -25 -12 -4 7 -15 7 -30 1 -22 -8 -25 -7 -25 13 0
29 22 77 33 70 4 -2 5 -13 2 -24z m-395 -10 c0 -5 -4 -8 -9 -4 -5 3 -12 1 -16
-5 -3 -5 1 -10 10 -10 12 0 15 -7 13 -27 -4 -38 -32 -37 -36 0 -2 16 -1 35 2
43 6 16 36 19 36 3z m315 -28 c-4 -17 -10 -31 -15 -31 -10 0 -20 25 -20 48 0
14 2 15 10 2 8 -12 10 -12 16 3 10 28 17 12 9 -22z m157 9 c-2 -16 -8 -30 -13
-30 -5 0 -9 14 -9 30 0 18 5 30 13 30 9 0 12 -10 9 -30z m-252 -7 c-1 -27 -20
-63 -34 -63 -8 0 -8 75 1 83 16 16 33 5 33 -20z m48 -6 c3 -22 -1 -27 -17 -27
-15 0 -21 6 -21 23 0 46 33 49 38 4z m76 -1 c-6 -25 -24 -37 -24 -15 0 15 21
52 26 46 3 -3 2 -16 -2 -31z m-736 6 c2 -7 -2 -10 -12 -6 -13 5 -16 -1 -16
-26 0 -29 2 -31 17 -19 14 12 16 12 11 -1 -2 -8 -12 -16 -21 -18 -14 -3 -17 5
-17 36 0 21 3 42 7 46 9 9 26 2 31 -12z m268 -28 c0 -18 -2 -34 -6 -34 -9 0
-20 62 -13 73 9 15 17 -3 19 -39z m199 1 c0 -30 -4 -41 -17 -43 -10 -2 -18 2
-18 8 0 6 5 8 10 5 6 -3 10 -1 10 4 0 6 -4 11 -10 11 -5 0 -10 14 -10 31 0 24
4 30 18 27 13 -2 17 -13 17 -43z m74 13 c-1 -24 -3 -27 -6 -10 -2 12 -8 22
-13 22 -5 0 -11 -10 -13 -22 -4 -19 -5 -18 -7 7 l-2 30 -8 -30 -8 -30 -1 33
c-1 29 2 32 29 32 27 0 30 -3 29 -32z m-405 -18 c1 -16 -2 -30 -5 -30 -9 0
-19 53 -12 63 8 14 16 -1 17 -33z m95 -3 l-1 -32 -8 30 c-6 24 -8 26 -9 8 -1
-31 -21 -29 -21 1 0 23 17 38 33 29 4 -2 6 -19 6 -36z m91 39 c0 -3 -4 -8 -10
-11 -5 -3 -10 -1 -10 4 0 6 5 11 10 11 6 0 10 -2 10 -4z m-272 -47 c-1 -13
-10 -24 -18 -24 -19 0 -26 45 -8 56 18 11 30 -4 26 -32z m49 5 c1 -20 0 -22
-4 -6 -2 12 -9 22 -15 22 -6 0 -8 -9 -5 -20 3 -11 1 -23 -4 -26 -10 -6 -12 49
-2 60 14 13 28 -1 30 -30z m83 21 c0 -8 -4 -15 -10 -15 -5 0 -10 -5 -10 -11 0
-5 5 -7 10 -4 6 3 10 1 10 -4 0 -17 -30 -13 -36 4 -9 21 3 45 21 45 8 0 15 -7
15 -15z m-695 -296 c-5 -58 -15 -62 -15 -6 0 26 4 47 9 47 5 0 8 -18 6 -41z
m-25 11 c0 -5 -2 -10 -4 -10 -3 0 -8 5 -11 10 -3 6 -1 10 4 10 6 0 11 -4 11
-10z m57 -57 c-2 -16 -4 -5 -4 22 0 28 2 40 4 28 2 -13 2 -35 0 -50z m71 35
c13 -11 17 -68 4 -68 -4 0 -8 12 -7 27 0 29 -25 45 -26 16 0 -10 -3 -13 -6 -5
-2 6 -10 9 -16 5 -7 -4 -6 1 2 11 13 15 13 19 0 27 -10 8 -7 8 11 3 14 -3 31
-11 38 -16z m-43 -58 c3 -5 1 -10 -4 -10 -6 0 -11 5 -11 10 0 6 2 10 4 10 3 0
8 -4 11 -10z m689 -30 c5 -5 9 -21 9 -36 0 -34 -35 -64 -74 -64 -27 0 -29 -3
-29 -40 0 -22 -4 -40 -10 -40 -6 0 -10 38 -10 94 l0 95 28 4 c32 5 74 -1 86
-13z m66 -75 c0 -57 -4 -95 -10 -95 -6 0 -10 38 -10 95 0 57 4 95 10 95 6 0
10 -38 10 -95z m-630 65 c-6 -11 -12 -20 -14 -20 -2 0 -2 9 1 20 3 11 9 20 15
20 5 0 4 -9 -2 -20z m391 1 c20 -16 24 -28 24 -75 0 -70 -22 -96 -89 -103
l-46 -6 0 96 c0 91 1 96 23 100 46 9 66 6 88 -12z m999 -8 c-8 -4 -28 -16 -45
-28 -32 -24 -63 -42 -55 -32 20 23 86 67 99 66 13 0 14 -1 1 -6z m-1690 -51
c0 -21 -2 -24 -10 -12 -13 20 -13 53 0 45 6 -3 10 -18 10 -33z m88 -4 c7 -7
12 -23 12 -36 0 -37 -32 -24 -36 16 -4 34 4 40 24 20z m1491 -21 c-2 -2 -31
-28 -64 -57 l-60 -54 55 57 c30 31 59 57 64 57 5 0 7 -1 5 -3z m-1419 -43 c0
-19 -4 -33 -8 -30 -12 7 -14 66 -2 66 5 0 10 -16 10 -36z m116 -68 c0 -13 -4
-22 -8 -19 -11 6 -10 43 1 43 5 0 8 -11 7 -24z m939 4 c-11 -5 -42 -9 -70 -9
-52 -1 -323 -17 -482 -30 -51 -4 -93 -4 -93 0 0 7 72 13 395 34 243 16 276 16
250 5z m-864 -20 c10 -6 19 -20 19 -30 0 -24 -3 -24 -41 -4 -25 12 -28 18 -18
30 14 17 15 17 40 4z m36 -42 c-3 -8 -6 -5 -6 6 -1 11 2 17 5 13 3 -3 4 -12 1
-19z m716 7 c-3 -9 -8 -14 -10 -11 -3 3 -2 9 2 15 9 16 15 13 8 -4z m-196 -27
c-3 -8 -6 -5 -6 6 -1 11 2 17 5 13 3 -3 4 -12 1 -19z"/>
<path d="M1720 1895 c0 -15 4 -24 10 -20 6 3 10 12 10 20 0 8 -4 17 -10 20 -6
4 -10 -5 -10 -20z"/>
<path d="M1951 1774 c0 -11 3 -14 6 -6 3 7 2 16 -1 19 -3 4 -6 -2 -5 -13z"/>
<path d="M1550 1750 c0 -5 5 -10 10 -10 6 0 10 5 10 10 0 6 -4 10 -10 10 -5 0
-10 -4 -10 -10z"/>
<path d="M1781 1764 c0 -11 3 -14 6 -6 3 7 2 16 -1 19 -3 4 -6 -2 -5 -13z"/>
<path d="M1824 1779 c-3 -6 -1 -16 5 -22 8 -8 11 -5 11 11 0 24 -5 28 -16 11z"/>
<path d="M1631 1754 c0 -11 3 -14 6 -6 3 7 2 16 -1 19 -3 4 -6 -2 -5 -13z"/>
<path d="M1210 1735 c0 -8 5 -15 10 -15 6 0 10 7 10 15 0 8 -4 15 -10 15 -5 0
-10 -7 -10 -15z"/>
<path d="M1330 1315 c0 -29 4 -35 21 -35 34 0 59 19 59 45 0 22 -4 25 -40 25
-39 0 -40 -1 -40 -35z"/>
<path d="M1170 1266 l0 -73 28 5 c15 2 32 9 39 14 19 15 26 67 13 99 -10 24
-18 29 -46 29 l-34 0 0 -74z"/>
<path d="M4439 2517 c-1 -4 -3 -11 -4 -17 -1 -5 -3 -13 -4 -17 -1 -5 -6 -1
-11 7 -7 12 -13 11 -34 -9 -14 -13 -25 -26 -24 -30 2 -20 -4 -22 -22 -6 -18
17 -20 17 -14 2 5 -14 2 -16 -12 -11 -18 6 -18 6 -2 -11 14 -16 20 -16 47 -4
22 10 29 19 25 31 -5 17 4 23 34 19 21 -3 47 28 33 42 -6 6 -12 8 -12 4z"/>
<path d="M5000 2477 c-56 -93 -196 -215 -466 -404 -152 -106 -314 -268 -297
-295 3 -6 1 -8 -4 -5 -16 10 -24 -20 -8 -33 10 -8 14 -8 18 2 4 9 6 9 6 1 2
-22 -17 -23 -45 -1 -16 13 -140 114 -276 225 -136 112 -250 203 -254 203 -3 0
-3 -8 0 -17 4 -10 17 -51 28 -93 11 -41 27 -97 35 -125 23 -81 74 -277 84
-320 14 -69 11 -247 -7 -298 -16 -48 -44 -64 -44 -26 0 12 -4 17 -11 14 -6 -4
-8 -13 -5 -21 3 -9 -1 -11 -12 -8 -14 5 -14 3 2 -10 10 -8 23 -13 27 -10 5 3
7 -1 4 -8 -3 -7 21 -35 56 -63 72 -58 220 -182 512 -424 114 -95 211 -170 215
-166 4 4 7 197 7 431 0 362 2 426 15 437 8 8 47 36 85 62 39 27 100 69 136 94
36 25 212 147 392 271 179 124 326 228 327 232 0 3 -100 86 -222 183 -123 97
-233 185 -246 196 -12 10 -23 19 -25 19 -1 0 -13 -19 -27 -43z m315 -335 c-6
-7 -35 18 -35 31 0 5 9 2 20 -8 11 -10 18 -20 15 -23z m-325 18 c0 -5 7 -7 15
-4 11 5 13 2 8 -12 -5 -14 -3 -16 13 -10 14 5 16 4 8 -4 -9 -9 -18 -8 -38 5
-26 17 -34 35 -16 35 6 0 10 -4 10 -10z m280 -37 c-16 -11 -24 -12 -34 -4 -10
9 -15 8 -19 -3 -4 -10 -1 -13 9 -9 29 11 13 -13 -18 -26 -18 -8 -41 -23 -50
-33 -14 -17 -19 -17 -37 -6 -23 14 -26 24 -11 33 6 3 10 -1 10 -9 0 -9 7 -16
16 -16 9 0 14 5 12 12 -6 17 78 79 97 72 9 -4 15 -3 14 2 -4 21 2 26 16 14 14
-11 13 -15 -5 -27z m-290 7 c19 -14 22 -22 14 -30 -9 -9 -14 -9 -19 1 -5 8 -4
10 3 5 7 -4 12 -2 12 3 0 6 -12 11 -27 11 -25 0 -26 -1 -8 -20 17 -18 17 -20
1 -26 -12 -4 -25 1 -39 16 l-22 22 28 -17 c15 -9 27 -13 27 -7 0 5 -7 12 -15
16 -8 3 -15 10 -15 16 0 6 5 8 10 5 6 -3 10 1 10 9 0 21 9 20 40 -4z m-320 6
c0 -2 -8 -10 -17 -17 -16 -13 -17 -12 -4 4 13 16 21 21 21 13z m-60 -51 c-7
-8 -17 -15 -23 -15 -6 0 -2 7 9 15 25 19 30 19 14 0z m310 -30 c6 3 10 1 10
-4 0 -6 -3 -11 -7 -12 -30 -3 -47 -9 -54 -21 -8 -12 -13 -4 -10 15 1 5 -3 6
-8 3 -5 -3 -11 1 -15 9 -6 17 19 21 29 5 3 -5 11 -10 17 -10 6 0 3 10 -8 22
l-19 22 28 -17 c15 -10 32 -15 37 -12z m-85 -34 c13 -16 15 -21 5 -16 -29 16
-40 27 -34 37 3 5 7 8 8 6 0 -2 10 -14 21 -27z m269 7 c-4 -6 -2 -8 4 -4 6 3
13 2 17 -4 3 -5 1 -10 -5 -10 -6 0 -18 -7 -26 -15 -8 -8 -22 -11 -31 -8 -10 4
-14 2 -9 -5 3 -6 2 -14 -4 -17 -6 -4 -9 -3 -8 2 2 4 -1 9 -7 10 -5 1 -9 -5 -9
-13 2 -12 -1 -12 -14 -2 -13 11 -15 10 -10 -3 4 -11 -3 -25 -18 -38 -20 -18
-27 -19 -44 -9 -24 15 -26 28 -4 28 8 0 12 -4 9 -10 -3 -5 1 -10 10 -10 10 0
15 6 12 13 -3 7 10 23 29 36 19 13 32 27 29 30 -2 4 6 7 18 6 23 -2 47 16 47
35 0 6 5 8 10 5 6 -4 7 -11 4 -17z m-300 -65 c-24 -22 -28 -23 -43 -9 -25 23
-37 20 -16 -4 16 -18 16 -20 1 -26 -10 -4 -25 1 -36 11 -26 23 -25 35 1 35 11
0 18 4 15 9 -3 5 1 11 9 15 8 3 14 0 12 -7 -1 -7 4 -11 11 -9 8 1 11 -2 7 -8
-3 -6 3 -10 16 -10 l22 0 -20 23 c-16 16 -18 25 -9 33 8 9 17 7 33 -9 l23 -20
-26 -24z m-116 -42 c12 -11 22 -23 22 -27 0 -4 -5 -3 -12 4 -17 17 -33 15 -18
-3 7 -8 8 -15 2 -15 -5 0 -15 7 -22 15 -9 11 -9 15 -1 15 7 0 9 5 5 11 -5 8
-9 8 -14 -1 -5 -8 -10 -9 -14 -2 -3 6 0 13 6 15 20 8 21 8 46 -12z m232 -16
c10 -11 9 -18 -3 -30 -9 -8 -20 -15 -25 -15 -6 0 -12 -6 -15 -12 -3 -10 -8
-10 -18 1 -12 12 -12 13 0 6 9 -5 12 -4 7 3 -4 6 -14 8 -22 5 -11 -4 -12 -9
-5 -16 14 -14 14 -27 1 -27 -5 0 -10 7 -10 15 0 8 -8 16 -17 16 -17 1 -17 2 0
6 9 2 17 9 17 14 0 5 5 9 10 9 6 0 20 9 32 20 26 24 32 25 48 5z m-272 -11
c30 -21 28 -36 -5 -34 -43 3 -46 1 -33 -15 20 -25 -5 -17 -29 9 -18 19 -20 24
-7 29 11 4 13 1 9 -10 -4 -11 -2 -14 8 -11 8 3 13 14 11 26 -4 26 14 28 46 6z
m128 -95 c19 -22 19 -22 -3 -8 -13 8 -23 17 -23 21 0 12 6 9 26 -13z m-25 -10
c11 -5 17 -15 13 -20 -3 -6 -12 -3 -21 8 -8 10 -11 12 -7 4 4 -9 3 -12 -4 -7
-6 3 -13 2 -17 -4 -4 -6 -11 -8 -16 -5 -5 4 -9 2 -9 -4 0 -17 18 -21 24 -5 3
8 11 12 17 9 18 -11 -23 -34 -46 -25 -24 9 -21 19 14 42 32 21 29 20 52 7z
m-93 -61 c17 -17 15 -28 -4 -28 -8 0 -12 -4 -9 -10 8 -14 -44 -25 -57 -12 -8
8 -7 16 2 27 9 11 16 13 24 5 15 -15 30 -12 17 3 -19 23 6 36 27 15z m-74 -67
c3 -4 3 -11 0 -14 -8 -8 -34 3 -34 14 0 11 27 12 34 0z m-41 -13 c10 -8 14
-18 8 -26 -6 -10 -12 -7 -25 12 -18 28 -10 34 17 14z m-50 -136 l67 -54 0
-206 0 -207 -71 130 c-78 145 -132 279 -154 385 -8 39 -15 76 -15 81 0 5 24
-10 53 -33 29 -24 83 -67 120 -96z m-402 -189 c13 -16 12 -17 -3 -4 -17 13
-22 21 -14 21 2 0 10 -8 17 -17z m220 -270 c13 -16 12 -17 -3 -4 -17 13 -22
21 -14 21 2 0 10 -8 17 -17z m49 -38 c13 -14 21 -25 18 -25 -2 0 -15 11 -28
25 -13 14 -21 25 -18 25 2 0 15 -11 28 -25z m-44 3 c4 -6 3 -8 -4 -4 -6 4 -12
-5 -15 -21 -4 -26 -4 -26 -6 5 -1 32 11 42 25 20z m57 -101 c12 -10 15 -15 7
-11 -34 16 -48 35 -42 57 6 21 7 21 10 -3 2 -14 13 -33 25 -43z m-30 -9 c18
-18 21 -23 7 -10 -14 12 -31 22 -38 22 -16 0 -15 -32 1 -50 10 -12 9 -12 -5
-1 -19 14 -25 71 -8 71 6 0 25 -15 43 -32z m12 -68 c10 -11 16 -20 13 -20 -3
0 -13 9 -23 20 -10 11 -16 20 -13 20 3 0 13 -9 23 -20z"/>
<path d="M4770 2006 c0 -2 8 -10 18 -17 15 -13 16 -12 3 4 -13 16 -21 21 -21
13z"/>
<path d="M4700 1956 c0 -2 7 -9 15 -16 9 -7 15 -8 15 -2 0 5 -7 12 -15 16 -8
3 -15 4 -15 2z"/>
<path d="M4861 1887 c-6 -8 -8 -17 -4 -20 7 -8 33 11 33 24 0 13 -16 11 -29
-4z"/>
<path d="M4610 1885 c7 -8 17 -15 22 -15 6 0 5 7 -2 15 -7 8 -17 15 -22 15 -6
0 -5 -7 2 -15z"/>
<path d="M4630 1720 c0 -5 5 -10 11 -10 5 0 7 5 4 10 -3 6 -8 10 -11 10 -2 0
-4 -4 -4 -10z"/>
<path d="M4586 1689 c3 -5 12 -9 21 -9 19 0 9 13 -12 16 -8 1 -13 -2 -9 -7z"/>
<path d="M4691 2493 c13 -15 11 -16 -10 -10 -22 5 -23 5 -5 -12 16 -15 20 -16
27 -4 5 7 12 11 18 8 16 -11 10 7 -8 21 -25 19 -38 17 -22 -3z"/>
<path d="M740 2472 c0 -20 6 -31 18 -35 9 -2 25 -8 34 -12 13 -5 15 -2 11 17
-3 13 -10 28 -14 34 -5 6 -6 14 -2 17 3 4 1 7 -5 7 -7 0 -12 -5 -12 -11 0 -8
-5 -8 -15 1 -13 11 -15 8 -15 -18z"/>
<path d="M3892 2486 c2 -1 12 -8 22 -16 16 -12 18 -12 11 -1 -6 11 -3 13 13 9
12 -4 20 -2 17 2 -3 5 -19 8 -35 8 -17 -1 -29 -2 -28 -2z"/>
<path d="M4185 2469 c22 -23 29 -24 21 -3 -6 15 -4 15 10 3 15 -12 17 -12 12
1 -2 8 -17 16 -32 17 -27 2 -28 1 -11 -18z"/>
<path d="M3884 2461 c20 -22 26 -25 26 -13 0 4 -10 13 -22 21 -23 14 -23 14
-4 -8z"/>
<path d="M4015 2470 c3 -5 2 -10 -4 -10 -6 0 -8 -7 -5 -15 4 -8 10 -15 15 -15
4 0 5 7 2 17 -5 12 -3 14 8 8 12 -8 12 -6 0 8 -15 18 -26 23 -16 7z"/>
<path d="M4621 2461 c-7 -5 -10 -14 -7 -20 4 -6 12 -9 17 -6 5 4 9 -1 9 -10 0
-9 5 -13 11 -10 7 5 5 13 -6 25 -13 14 -13 19 -3 23 7 3 9 6 3 6 -5 0 -16 -3
-24 -8z"/>
<path d="M830 2451 c0 -5 -3 -16 -6 -25 -4 -12 6 -21 37 -34 40 -17 112 -40
82 -26 -7 3 -13 16 -13 29 0 18 -23 40 -38 35 -1 0 -16 7 -32 15 -17 9 -30 11
-30 6z"/>
<path d="M4132 2455 c8 -8 -10 -29 -31 -36 -11 -4 -11 -7 1 -16 11 -10 21 -8
47 8 36 22 37 42 0 47 -13 2 -21 1 -17 -3z"/>
<path d="M3849 2446 c-1 -3 -2 -12 -3 -18 -1 -7 -10 -12 -21 -11 -10 1 -27 -4
-37 -11 -16 -11 -16 -15 -4 -25 10 -8 16 -9 21 -1 3 5 1 10 -5 10 -6 0 -8 5
-5 10 3 6 17 7 31 4 17 -4 26 -1 30 11 4 9 13 14 21 11 9 -4 13 -1 11 6 -5 13
-37 24 -39 14z"/>
<path d="M558 2435 c-11 -18 4 -65 23 -76 25 -13 38 -4 32 21 -7 25 -23 26
-24 3 0 -10 -6 0 -13 22 -6 22 -14 35 -18 30z"/>
<path d="M3961 2431 c-7 -5 -9 -11 -5 -14 5 -3 15 1 22 9 14 16 5 18 -17 5z"/>
<path d="M4573 2433 c-18 -7 -16 -23 2 -23 21 0 19 -12 -5 -32 -21 -19 -34
-10 -24 17 6 15 4 15 -13 4 l-21 -12 21 -18 c20 -16 23 -15 49 4 26 19 27 22
11 39 -18 20 -5 25 17 6 12 -11 12 -10 1 5 -14 18 -18 19 -38 10z"/>
<path d="M3937 2395 c5 -15 3 -16 -15 -6 -19 10 -22 9 -22 -8 0 -11 4 -23 10
-26 5 -3 7 0 4 8 -3 9 2 13 18 13 24 -1 33 24 10 32 -8 2 -10 -2 -5 -13z"/>
<path d="M4255 2390 c-10 -12 -25 -18 -32 -16 -7 3 -13 1 -13 -4 0 -13 21 -24
29 -14 3 5 13 9 21 9 9 0 14 7 12 19 -3 18 -2 19 15 5 16 -13 17 -13 4 4 -17
21 -14 21 -36 -3z"/>
<path d="M630 2390 c0 -5 5 -10 10 -10 6 0 10 5 10 10 0 6 -4 10 -10 10 -5 0
-10 -4 -10 -10z"/>
<path d="M955 2390 c3 -5 8 -10 11 -10 2 0 4 5 4 10 0 6 -5 10 -11 10 -5 0 -7
-4 -4 -10z"/>
<path d="M4064 2385 c-5 -12 -9 -13 -20 -4 -8 7 -17 9 -21 6 -7 -8 15 -37 28
-37 15 0 48 33 43 42 -8 13 -24 9 -30 -7z"/>
<path d="M3751 2377 c0 -10 -5 -16 -10 -13 -4 3 -16 -3 -25 -13 -26 -29 -1
-36 34 -11 27 19 44 40 21 25 -5 -3 -12 3 -14 12 -4 17 -5 17 -6 0z"/>
<path d="M636 2354 c-8 -20 -8 -24 2 -24 4 0 8 9 9 20 2 24 -3 26 -11 4z"/>
<path d="M664 2354 c3 -8 6 -22 6 -29 0 -18 32 -28 42 -13 10 17 10 58 -1 58
-4 0 -7 -11 -6 -25 2 -14 -1 -27 -6 -31 -5 -3 -9 6 -9 19 0 14 -7 28 -16 31
-12 5 -15 2 -10 -10z"/>
<path d="M3836 2362 c-3 -5 4 -18 16 -28 21 -19 21 -19 8 6 -17 33 -17 33 -24
22z"/>
<path d="M3870 2361 c0 -6 4 -12 8 -15 5 -3 9 1 9 9 0 8 -4 15 -9 15 -4 0 -8
-4 -8 -9z"/>
<path d="M4485 2360 c3 -5 8 -10 11 -10 2 0 4 5 4 10 0 6 -5 10 -11 10 -5 0
-7 -4 -4 -10z"/>
<path d="M4618 2354 c-32 -17 -34 -20 -12 -28 8 -3 12 -2 9 4 -3 6 0 10 9 10
8 0 17 6 20 13 3 6 3 2 0 -10 -3 -13 -1 -23 5 -23 18 0 24 22 10 35 -12 11
-19 11 -41 -1z"/>
<path d="M761 2310 c0 -32 2 -40 9 -29 5 9 6 28 0 45 -8 27 -8 26 -9 -16z"/>
<path d="M3663 2335 c-13 -14 1 -35 23 -35 21 0 24 17 6 33 -14 12 -19 13 -29
2z"/>
<path d="M3988 2337 c-7 -7 -20 -12 -28 -12 -19 0 -62 -44 -55 -56 9 -14 19
-11 45 11 12 11 31 22 42 26 12 3 17 12 14 20 -5 12 -2 12 17 3 20 -11 21 -11
8 4 -16 20 -25 21 -43 4z"/>
<path d="M4450 2338 c0 -6 3 -8 7 -5 3 4 12 -1 19 -11 12 -16 14 -16 31 2 12
14 13 16 2 8 -13 -10 -19 -9 -29 3 -15 18 -30 20 -30 3z"/>
<path d="M4163 2326 c-4 -7 -19 -19 -31 -25 -13 -7 -21 -15 -18 -18 3 -4 0
-13 -7 -22 -11 -14 -10 -14 5 -2 10 7 15 18 12 23 -3 5 0 8 7 6 22 -4 81 35
66 44 -17 11 -25 10 -34 -6z"/>
<path d="M3810 2321 c0 -17 21 -24 33 -11 9 10 9 11 0 6 -7 -4 -13 -2 -13 3 0
6 -4 11 -10 11 -5 0 -10 -4 -10 -9z"/>
<path d="M4556 2314 c-11 -8 -16 -14 -10 -14 13 0 39 18 34 24 -3 2 -14 -2
-24 -10z"/>
<path d="M4408 2313 c-10 -2 -18 -9 -18 -15 0 -6 3 -8 7 -5 3 4 12 -1 19 -11
7 -9 16 -14 20 -10 4 4 2 14 -4 21 -7 8 -9 17 -5 20 3 4 4 6 2 6 -2 -1 -12 -3
-21 -6z"/>
<path d="M4590 2311 c0 -6 4 -13 10 -16 6 -3 7 1 4 9 -7 18 -14 21 -14 7z"/>
<path d="M798 2280 c4 -31 17 -40 25 -17 5 14 -10 47 -22 47 -4 0 -6 -13 -3
-30z"/>
<path d="M3771 2295 c-14 -7 -30 -11 -37 -8 -7 2 -15 -1 -19 -7 -4 -7 2 -9 19
-6 14 3 26 0 26 -5 0 -5 -5 -9 -11 -9 -5 0 -7 -5 -4 -10 9 -15 37 9 31 26 -3
7 2 15 11 18 11 5 14 2 9 -11 -6 -15 -5 -16 5 -5 21 20 -2 33 -30 17z"/>
<path d="M537 2278 c-7 -24 3 -41 10 -20 4 10 9 8 19 -5 13 -17 13 -17 14 3 0
19 -17 44 -31 44 -4 0 -9 -10 -12 -22z"/>
<path d="M590 2270 c0 -19 5 -42 10 -50 7 -11 10 -6 10 20 0 19 -5 42 -10 50
-7 11 -10 6 -10 -20z"/>
<path d="M858 2276 c-5 -26 7 -56 23 -56 14 0 7 73 -7 77 -6 2 -14 -7 -16 -21z"/>
<path d="M4077 2293 c-4 -3 -7 -11 -7 -17 0 -6 5 -5 12 2 6 6 9 14 7 17 -3 3
-9 2 -12 -2z"/>
<path d="M4518 2281 c0 -3 -2 -13 -2 -21 -2 -15 -9 -16 -37 -5 -17 6 -34 -19
-23 -36 10 -17 25 -9 19 11 -5 15 -3 18 9 14 9 -3 16 -10 16 -15 0 -5 9 -4 19
3 11 7 19 16 18 21 -1 5 6 11 17 12 35 6 35 20 0 21 -18 1 -35 -1 -36 -5z"/>
<path d="M900 2245 c0 -21 5 -35 13 -35 17 0 18 58 1 64 -10 4 -14 -4 -14 -29z"/>
<path d="M3878 2258 c12 -12 24 -19 28 -15 10 10 -16 37 -34 37 -13 0 -12 -4
6 -22z"/>
<path d="M630 2236 c0 -14 5 -26 10 -26 6 0 10 9 10 19 0 11 -4 23 -10 26 -6
4 -10 -5 -10 -19z"/>
<path d="M3400 2252 c0 -7 12 -24 27 -38 14 -13 24 -27 21 -29 -3 -3 -11 1
-18 10 -15 18 -30 20 -30 2 0 -7 30 -30 66 -51 36 -22 69 -49 74 -61 11 -28
30 -42 30 -22 0 8 -13 32 -29 53 -40 54 -141 151 -141 136z"/>
<path d="M4052 2244 c2 -10 -3 -19 -11 -22 -9 -3 -11 0 -7 9 5 9 3 8 -6 -1 -7
-9 -20 -14 -28 -13 -10 2 -16 -4 -17 -16 -2 -29 13 -35 29 -13 7 11 15 19 18
18 13 -2 51 34 45 43 -10 17 -26 13 -23 -5z"/>
<path d="M3835 2240 c-4 -6 -10 -8 -15 -5 -4 3 -16 2 -25 -1 -15 -6 -14 -8 1
-25 9 -11 22 -19 27 -19 6 0 2 9 -8 20 -10 11 -13 20 -7 20 6 0 14 -5 17 -10
4 -6 16 -8 28 -4 31 9 34 14 17 24 -19 12 -27 12 -35 0z"/>
<path d="M4187 2244 c-8 -9 1 -24 14 -24 6 0 7 5 3 12 -5 8 -2 9 10 5 10 -4
15 -3 11 3 -7 11 -28 13 -38 4z"/>
<path d="M4330 2236 c0 -11 -8 -13 -27 -10 -15 3 -25 2 -21 -1 3 -4 12 -7 20
-9 7 -1 18 -4 23 -8 17 -10 34 16 18 30 -10 10 -13 10 -13 -2z"/>
<path d="M4406 2215 c-10 -8 -15 -19 -10 -26 5 -9 2 -10 -12 -5 -15 6 -17 5
-6 -5 19 -20 14 -31 -7 -19 -28 15 -35 12 -20 -6 12 -15 11 -16 -6 -11 -17 6
-20 2 -21 -21 -1 -15 1 -21 3 -14 3 6 8 10 12 7 4 -2 24 10 43 28 20 18 41 31
47 29 6 -2 11 1 11 8 0 6 -4 9 -9 5 -5 -3 -13 0 -16 6 -11 17 2 21 27 8 23
-12 23 -12 4 10 -11 11 -20 21 -20 21 -1 0 -9 -7 -20 -15z"/>
<path d="M4130 2205 c0 -27 16 -33 39 -14 13 10 19 19 14 19 -5 0 -15 -6 -21
-12 -10 -10 -15 -10 -22 2 -5 8 -10 11 -10 5z"/>
<path d="M4269 2204 c-1 -5 -1 -12 0 -16 0 -5 -2 -7 -6 -7 -18 3 -33 -2 -33
-10 0 -18 26 -18 48 -1 19 16 20 20 7 30 -8 7 -16 9 -16 4z"/>
<path d="M3927 2183 c-10 -9 25 -32 40 -26 10 4 11 9 2 19 -12 15 -31 18 -42
7z"/>
<path d="M559 2178 c-10 -35 -1 -57 22 -58 17 0 15 38 -2 49 -11 6 -19 10 -20
9z"/>
<path d="M4062 2160 c4 -17 49 -21 60 -5 14 19 8 24 -27 22 -26 -1 -35 -6 -33
-17z"/>
<path d="M4197 2173 c-10 -9 13 -33 32 -32 10 0 8 3 -7 10 -13 5 -20 13 -17
19 7 11 2 13 -8 3z"/>
<path d="M3405 2150 c-15 -24 75 -130 110 -130 37 0 7 71 -46 110 -45 32 -55
35 -64 20z m69 -56 c15 -14 26 -27 23 -30 -3 -3 -20 8 -39 25 -18 17 -28 30
-23 30 6 0 23 -11 39 -25z"/>
<path d="M612 2125 c0 -16 2 -22 5 -12 2 9 2 23 0 30 -3 6 -5 -1 -5 -18z"/>
<path d="M3891 2141 c-10 -6 -9 -10 5 -15 20 -8 25 -4 16 11 -4 7 -13 9 -21 4z"/>
<path d="M684 2108 c3 -42 13 -58 22 -35 3 8 -1 28 -10 44 l-15 28 3 -37z"/>
<path d="M4036 2126 c3 -8 12 -12 20 -9 17 6 9 23 -11 23 -8 0 -12 -6 -9 -14z"/>
<path d="M4128 2105 c-26 -18 -44 -36 -41 -39 4 -3 -1 -6 -10 -6 -19 0 -23
-15 -5 -26 7 -5 8 -3 3 6 -6 10 -4 12 8 7 9 -3 16 -3 16 1 -4 26 1 34 16 22
12 -10 16 -9 21 4 3 9 10 13 15 10 5 -3 14 7 21 21 8 19 14 22 20 13 7 -10 9
-10 6 1 -7 24 -20 21 -70 -14z"/>
<path d="M4275 2124 c-19 -14 -19 -15 -1 -32 18 -16 18 -16 13 0 -3 10 -1 20
5 24 6 4 8 3 4 -4 -3 -6 -2 -13 3 -17 6 -3 8 4 6 16 -6 29 -7 30 -30 13z"/>
<path d="M641 2113 c-12 -13 -12 -16 0 -24 21 -13 29 -11 29 10 0 27 -12 32
-29 14z"/>
<path d="M3250 2081 c0 -30 5 -51 13 -54 10 -4 10 -6 0 -6 -8 -1 -13 -16 -13
-41 0 -33 6 -46 32 -69 18 -16 34 -28 36 -27 6 7 -31 65 -39 61 -5 -4 -9 -1
-9 4 0 16 11 14 32 -6 20 -18 25 -5 6 16 -7 8 -8 11 -2 8 7 -4 12 14 13 55 1
51 -1 59 -14 55 -8 -4 -15 -2 -15 3 0 6 -9 19 -20 30 l-20 20 0 -49z m52 -55
c-4 -7 -8 -5 -10 7 -2 9 -8 15 -13 12 -5 -4 -9 2 -9 11 0 16 1 16 20 -1 11
-10 16 -23 12 -29z"/>
<path d="M4003 2114 c-3 -8 -1 -20 4 -25 7 -7 12 -5 16 5 4 9 2 16 -4 16 -6 0
-7 5 -4 10 3 6 4 10 0 10 -3 0 -8 -7 -12 -16z"/>
<path d="M3360 2106 c0 -8 4 -17 9 -20 5 -3 7 -14 4 -24 -3 -14 13 -34 59 -72
107 -92 98 -85 98 -68 0 8 -34 43 -76 78 -41 34 -73 65 -70 67 3 3 31 -17 63
-44 71 -61 83 -68 83 -51 0 11 -90 91 -152 136 -15 11 -18 11 -18 -2z"/>
<path d="M771 2081 c7 -10 19 -18 27 -17 16 1 40 -30 30 -40 -4 -3 -21 1 -37
9 -17 9 -31 12 -31 8 0 -12 120 -62 131 -55 12 7 12 34 -1 34 -5 0 -10 -4 -10
-9 0 -5 -9 -7 -20 -4 -13 3 -20 13 -19 27 1 17 2 17 6 4 5 -22 17 -23 32 -4 9
11 3 17 -31 32 -24 9 -46 18 -50 18 -3 1 -10 4 -14 9 -15 14 -24 7 -13 -12z"/>
<path d="M3980 2089 c0 -5 -4 -8 -9 -4 -5 3 -12 1 -16 -5 -4 -6 5 -10 19 -10
18 0 24 4 20 15 -7 17 -14 20 -14 4z"/>
<path d="M543 2065 c0 -18 19 -15 25 3 2 7 -3 12 -10 12 -8 0 -15 -7 -15 -15z"/>
<path d="M582 2033 c0 -24 4 -43 9 -43 11 0 11 38 -1 65 -6 15 -8 9 -8 -22z"/>
<path d="M4210 2050 c20 -13 33 -13 25 0 -3 6 -14 10 -23 10 -15 0 -15 -2 -2
-10z"/>
<path d="M4174 2035 c23 -18 46 -19 46 -4 0 6 -7 9 -15 5 -8 -3 -15 -1 -15 4
0 6 -8 10 -17 10 -16 -1 -16 -2 1 -15z"/>
<path d="M4010 2036 c0 -2 8 -10 18 -17 15 -13 16 -12 3 4 -13 16 -21 21 -21
13z"/>
<path d="M535 2020 c3 -5 10 -10 16 -10 5 0 9 5 9 10 0 6 -7 10 -16 10 -8 0
-12 -4 -9 -10z"/>
<path d="M660 2020 c0 -5 5 -10 10 -10 6 0 10 -11 10 -24 0 -13 7 -29 15 -36
13 -11 15 -8 15 14 0 14 5 26 10 26 6 0 10 -5 10 -11 0 -5 4 -8 9 -5 10 7 25
-24 16 -33 -3 -3 -10 1 -15 9 -6 9 -10 10 -10 3 0 -15 28 -43 42 -43 6 0 20
-7 30 -17 21 -19 26 -16 34 24 6 28 3 31 -53 55 -32 14 -62 26 -68 27 -5 1
-20 9 -32 17 -13 8 -23 10 -23 4z m158 -93 c2 -10 -3 -17 -12 -17 -10 0 -16 9
-16 21 0 24 23 21 28 -4z"/>
<path d="M3594 1985 c3 -24 1 -47 -4 -50 -6 -4 -7 -12 -3 -18 11 -18 13 -81 2
-87 -5 -4 4 -19 21 -35 l30 -29 0 62 c0 36 4 62 10 62 7 0 7 6 0 19 -5 11 -10
35 -10 53 0 21 -7 40 -20 51 -29 25 -32 22 -26 -28z"/>
<path d="M4118 2016 c-10 -7 -18 -17 -18 -21 0 -5 8 -1 19 9 16 15 19 15 31 1
7 -9 15 -13 18 -11 4 5 -22 36 -30 36 -2 0 -11 -7 -20 -14z"/>
<path d="M3370 1978 c0 -20 169 -195 170 -177 0 9 -9 24 -20 34 -24 22 -27 50
-4 41 11 -4 14 -1 12 11 -3 14 -131 102 -150 103 -5 0 -8 -6 -8 -12z m100 -78
c0 -15 -5 -12 -26 11 -19 22 -19 22 4 10 12 -6 22 -16 22 -21z"/>
<path d="M4086 1969 c19 -18 24 -19 43 -8 11 8 21 17 21 22 0 4 -4 5 -10 2
-18 -11 -50 -14 -50 -4 0 5 -5 9 -12 9 -7 0 -3 -9 8 -21z"/>
<path d="M3337 1933 c10 -29 24 -43 42 -42 10 0 12 2 3 6 -6 2 -9 9 -6 14 7
13 -14 39 -32 39 -8 0 -11 -6 -7 -17z"/>
<path d="M3250 1887 c0 -7 5 -18 12 -25 9 -9 9 -12 -1 -12 -9 0 -10 -4 -4 -12
5 -7 8 -37 6 -67 -2 -42 0 -52 11 -48 8 3 19 -5 26 -19 8 -13 17 -24 22 -24
13 0 7 81 -6 99 -8 11 -8 13 2 7 6 -4 12 -3 12 3 0 5 -5 13 -11 17 -8 5 -8 9
1 14 14 9 -3 50 -22 50 -6 0 -5 -7 3 -17 13 -16 12 -17 -3 -4 -10 7 -18 22
-18 32 0 11 -7 19 -15 19 -8 0 -15 -6 -15 -13z m51 -144 c13 -16 12 -17 -3 -4
-10 7 -18 15 -18 17 0 8 8 3 21 -13z"/>
<path d="M3370 1867 c0 -14 137 -137 160 -145 6 -2 10 2 10 10 -1 11 -26 34
-141 126 -22 18 -29 20 -29 9z"/>
<path d="M3378 1793 c-2 -10 -2 -27 0 -38 6 -26 162 -152 162 -130 0 9 -13 27
-29 40 -16 14 -31 38 -34 54 -7 32 -61 91 -83 91 -7 0 -14 -8 -16 -17z m72
-66 c0 -6 -9 -2 -20 8 -11 10 -20 23 -20 28 0 6 9 2 20 -8 11 -10 20 -23 20
-28z"/>
<path d="M3590 1778 c1 -15 49 -53 56 -45 5 5 -42 57 -51 57 -3 0 -5 -6 -5
-12z"/>
<path d="M3602 1666 c2 -45 -1 -77 -7 -80 -5 -1 -2 -12 8 -23 12 -14 15 -29
11 -51 -4 -18 -10 -32 -14 -32 -3 0 -7 -7 -7 -15 0 -17 44 -61 53 -52 10 10 6
77 -5 91 -7 9 -8 17 -2 20 5 3 9 46 8 94 -1 81 -3 90 -25 106 l-24 18 4 -76z"/>
<path d="M3387 1693 c-4 -3 -7 -20 -6 -37 0 -26 12 -40 78 -93 43 -35 82 -63
86 -63 13 0 -6 72 -28 102 -21 28 -104 98 -117 98 -4 0 -10 -3 -13 -7z m86
-82 c59 -55 42 -60 -19 -6 -27 24 -43 44 -36 45 7 0 32 -18 55 -39z"/>
<path d="M5370 1170 c-9 -6 -10 -10 -3 -10 6 0 15 5 18 10 8 12 4 12 -15 0z"/>
<path d="M5319 1133 c-13 -16 -12 -17 4 -4 9 7 17 15 17 17 0 8 -8 3 -21 -13z"/>
<path d="M5279 1103 c-13 -16 -12 -17 4 -4 9 7 17 15 17 17 0 8 -8 3 -21 -13z"/>
<path d="M5204 1049 c-19 -22 -19 -22 4 -8 12 8 22 17 22 21 0 12 -6 9 -26
-13z"/>
<path d="M5143 1004 l-28 -26 33 22 c29 20 39 30 28 30 -3 0 -18 -12 -33 -26z"/>
<path d="M5005 911 c-55 -38 -144 -100 -197 -137 -54 -37 -98 -69 -98 -71 0
-7 0 -7 275 181 70 48 132 96 125 96 -3 0 -50 -31 -105 -69z"/>
<path d="M2268 923 c6 -2 18 -2 25 0 6 3 1 5 -13 5 -14 0 -19 -2 -12 -5z"/>
<path d="M2068 913 c7 -3 16 -2 19 1 4 3 -2 6 -13 5 -11 0 -14 -3 -6 -6z"/>
<path d="M2158 913 c7 -3 16 -2 19 1 4 3 -2 6 -13 5 -11 0 -14 -3 -6 -6z"/>
<path d="M1968 903 c6 -2 18 -2 25 0 6 3 1 5 -13 5 -14 0 -19 -2 -12 -5z"/>
<path d="M1858 893 c7 -3 16 -2 19 1 4 3 -2 6 -13 5 -11 0 -14 -3 -6 -6z"/>
<path d="M4639 653 c-13 -16 -12 -17 4 -4 16 13 21 21 13 21 -2 0 -10 -8 -17
-17z"/>
</g>
</svg>
